<?xml version="1.0" encoding="utf-8"?>
<svg version="1.1" xmlns:xlink="http://www.w3.org/1999/xlink" width="213px" height="160px" xmlns="http://www.w3.org/2000/svg">
  <g transform="matrix(1 0 0 1 -431 -29 )">
    <path d="M 431 29  L 644 29  L 644 189  L 431 189  L 431 29  " fill-rule="nonzero" fill="#cccccc" stroke="none" />
    <path d="M 442 40  L 633 40  L 633 178  L 442 178  L 442 40  " fill-rule="nonzero" fill="#ffffff" stroke="none" />
    <path d="M 553.76 77  C 547.04 77  541.76 71.72  541.76 65  C 541.76 58.28  547.04 53  553.76 53  C 560.48 53  565.76 58.28  565.76 65  C 565.76 71.72  560.48 77  553.76 77  " fill-rule="nonzero" fill="#cccccc" stroke="none" />
    <path d="M 446 174  L 446 102.5  L 491.75 70  L 555.8 115.40845070422534  L 592.4 89.5  L 629 115.40845070422534  L 629 174  L 446 174  " fill-rule="nonzero" fill="#169bd5" stroke="none" />
  </g>
</svg>